<mxfile host="65bd71144e">
    <diagram id="He8b3oyFHESSMIiECdDG" name="Page-1">
        <mxGraphModel dx="931" dy="479" grid="1" gridSize="10" guides="1" tooltips="1" connect="1" arrows="1" fold="1" page="1" pageScale="1" pageWidth="850" pageHeight="1100" math="0" shadow="0">
            <root>
                <mxCell id="0"/>
                <mxCell id="1" parent="0"/>
                <mxCell id="41" value="React Routes Overview" style="shape=table;startSize=50;container=1;collapsible=0;childLayout=tableLayout;fontStyle=1;align=center;fontSize=24;" vertex="1" parent="1">
                    <mxGeometry x="90" y="70" width="660" height="510" as="geometry"/>
                </mxCell>
                <mxCell id="42" value="" style="shape=tableRow;horizontal=0;startSize=0;swimlaneHead=0;swimlaneBody=0;top=0;left=0;bottom=0;right=0;collapsible=0;dropTarget=0;fillColor=none;points=[[0,0.5],[1,0.5]];portConstraint=eastwest;" vertex="1" parent="41">
                    <mxGeometry y="50" width="660" height="57" as="geometry"/>
                </mxCell>
                <mxCell id="43" value="&lt;b&gt;REACT ROUTE&lt;/b&gt;" style="shape=partialRectangle;html=1;whiteSpace=wrap;connectable=0;fillColor=none;top=0;left=0;bottom=0;right=0;overflow=hidden;fontSize=18;" vertex="1" parent="42">
                    <mxGeometry width="190" height="57" as="geometry">
                        <mxRectangle width="190" height="57" as="alternateBounds"/>
                    </mxGeometry>
                </mxCell>
                <mxCell id="44" value="&lt;b&gt;COMPONENT&lt;/b&gt;" style="shape=partialRectangle;html=1;whiteSpace=wrap;connectable=0;fillColor=none;top=0;left=0;bottom=0;right=0;overflow=hidden;fontSize=18;" vertex="1" parent="42">
                    <mxGeometry x="190" width="200" height="57" as="geometry">
                        <mxRectangle width="200" height="57" as="alternateBounds"/>
                    </mxGeometry>
                </mxCell>
                <mxCell id="45" value="&lt;b&gt;DESCRIPTION&lt;/b&gt;" style="shape=partialRectangle;html=1;whiteSpace=wrap;connectable=0;fillColor=none;top=0;left=0;bottom=0;right=0;overflow=hidden;fontSize=18;" vertex="1" parent="42">
                    <mxGeometry x="390" width="270" height="57" as="geometry">
                        <mxRectangle width="270" height="57" as="alternateBounds"/>
                    </mxGeometry>
                </mxCell>
                <mxCell id="46" value="" style="shape=tableRow;horizontal=0;startSize=0;swimlaneHead=0;swimlaneBody=0;top=0;left=0;bottom=0;right=0;collapsible=0;dropTarget=0;fillColor=none;points=[[0,0.5],[1,0.5]];portConstraint=eastwest;" vertex="1" parent="41">
                    <mxGeometry y="107" width="660" height="56" as="geometry"/>
                </mxCell>
                <mxCell id="47" value="'/'" style="shape=partialRectangle;html=1;whiteSpace=wrap;connectable=0;fillColor=none;top=0;left=0;bottom=0;right=0;overflow=hidden;fontSize=16;" vertex="1" parent="46">
                    <mxGeometry width="190" height="56" as="geometry">
                        <mxRectangle width="190" height="56" as="alternateBounds"/>
                    </mxGeometry>
                </mxCell>
                <mxCell id="48" value="HomePage" style="shape=partialRectangle;html=1;whiteSpace=wrap;connectable=0;fillColor=none;top=0;left=0;bottom=0;right=0;overflow=hidden;fontSize=16;" vertex="1" parent="46">
                    <mxGeometry x="190" width="200" height="56" as="geometry">
                        <mxRectangle width="200" height="56" as="alternateBounds"/>
                    </mxGeometry>
                </mxCell>
                <mxCell id="49" value="&lt;font style=&quot;font-size: 14px;&quot;&gt;Home page which shows users, CO2 summaries, and dashboard at bottom&lt;/font&gt;" style="shape=partialRectangle;html=1;whiteSpace=wrap;connectable=0;fillColor=none;top=0;left=0;bottom=0;right=0;overflow=hidden;fontSize=16;" vertex="1" parent="46">
                    <mxGeometry x="390" width="270" height="56" as="geometry">
                        <mxRectangle width="270" height="56" as="alternateBounds"/>
                    </mxGeometry>
                </mxCell>
                <mxCell id="88" value="" style="shape=tableRow;horizontal=0;startSize=0;swimlaneHead=0;swimlaneBody=0;top=0;left=0;bottom=0;right=0;collapsible=0;dropTarget=0;fillColor=none;points=[[0,0.5],[1,0.5]];portConstraint=eastwest;" vertex="1" parent="41">
                    <mxGeometry y="163" width="660" height="57" as="geometry"/>
                </mxCell>
                <mxCell id="89" value="'/users'" style="shape=partialRectangle;html=1;whiteSpace=wrap;connectable=0;fillColor=none;top=0;left=0;bottom=0;right=0;overflow=hidden;fontSize=16;" vertex="1" parent="88">
                    <mxGeometry width="190" height="57" as="geometry">
                        <mxRectangle width="190" height="57" as="alternateBounds"/>
                    </mxGeometry>
                </mxCell>
                <mxCell id="90" value="UserProfile, NavBar, UserImageCard,UserList" style="shape=partialRectangle;html=1;whiteSpace=wrap;connectable=0;fillColor=none;top=0;left=0;bottom=0;right=0;overflow=hidden;fontSize=16;" vertex="1" parent="88">
                    <mxGeometry x="190" width="200" height="57" as="geometry">
                        <mxRectangle width="200" height="57" as="alternateBounds"/>
                    </mxGeometry>
                </mxCell>
                <mxCell id="91" value="A list of users" style="shape=partialRectangle;html=1;whiteSpace=wrap;connectable=0;fillColor=none;top=0;left=0;bottom=0;right=0;overflow=hidden;fontSize=16;" vertex="1" parent="88">
                    <mxGeometry x="390" width="270" height="57" as="geometry">
                        <mxRectangle width="270" height="57" as="alternateBounds"/>
                    </mxGeometry>
                </mxCell>
                <mxCell id="84" value="" style="shape=tableRow;horizontal=0;startSize=0;swimlaneHead=0;swimlaneBody=0;top=0;left=0;bottom=0;right=0;collapsible=0;dropTarget=0;fillColor=none;points=[[0,0.5],[1,0.5]];portConstraint=eastwest;" vertex="1" parent="41">
                    <mxGeometry y="220" width="660" height="57" as="geometry"/>
                </mxCell>
                <mxCell id="85" value="'/users/:id'" style="shape=partialRectangle;html=1;whiteSpace=wrap;connectable=0;fillColor=none;top=0;left=0;bottom=0;right=0;overflow=hidden;fontSize=16;" vertex="1" parent="84">
                    <mxGeometry width="190" height="57" as="geometry">
                        <mxRectangle width="190" height="57" as="alternateBounds"/>
                    </mxGeometry>
                </mxCell>
                <mxCell id="86" value="" style="shape=partialRectangle;html=1;whiteSpace=wrap;connectable=0;fillColor=none;top=0;left=0;bottom=0;right=0;overflow=hidden;fontSize=16;" vertex="1" parent="84">
                    <mxGeometry x="190" width="200" height="57" as="geometry">
                        <mxRectangle width="200" height="57" as="alternateBounds"/>
                    </mxGeometry>
                </mxCell>
                <mxCell id="87" value="Individual User" style="shape=partialRectangle;html=1;whiteSpace=wrap;connectable=0;fillColor=none;top=0;left=0;bottom=0;right=0;overflow=hidden;fontSize=16;" vertex="1" parent="84">
                    <mxGeometry x="390" width="270" height="57" as="geometry">
                        <mxRectangle width="270" height="57" as="alternateBounds"/>
                    </mxGeometry>
                </mxCell>
                <mxCell id="133" value="" style="shape=tableRow;horizontal=0;startSize=0;swimlaneHead=0;swimlaneBody=0;top=0;left=0;bottom=0;right=0;collapsible=0;dropTarget=0;fillColor=none;points=[[0,0.5],[1,0.5]];portConstraint=eastwest;fontSize=14;" vertex="1" parent="41">
                    <mxGeometry y="277" width="660" height="40" as="geometry"/>
                </mxCell>
                <mxCell id="134" value="'/houses'" style="shape=partialRectangle;html=1;whiteSpace=wrap;connectable=0;fillColor=none;top=0;left=0;bottom=0;right=0;overflow=hidden;fontSize=16;" vertex="1" parent="133">
                    <mxGeometry width="190" height="40" as="geometry">
                        <mxRectangle width="190" height="40" as="alternateBounds"/>
                    </mxGeometry>
                </mxCell>
                <mxCell id="135" value="" style="shape=partialRectangle;html=1;whiteSpace=wrap;connectable=0;fillColor=none;top=0;left=0;bottom=0;right=0;overflow=hidden;fontSize=16;" vertex="1" parent="133">
                    <mxGeometry x="190" width="200" height="40" as="geometry">
                        <mxRectangle width="200" height="40" as="alternateBounds"/>
                    </mxGeometry>
                </mxCell>
                <mxCell id="136" value="" style="shape=partialRectangle;html=1;whiteSpace=wrap;connectable=0;fillColor=none;top=0;left=0;bottom=0;right=0;overflow=hidden;fontSize=16;" vertex="1" parent="133">
                    <mxGeometry x="390" width="270" height="40" as="geometry">
                        <mxRectangle width="270" height="40" as="alternateBounds"/>
                    </mxGeometry>
                </mxCell>
                <mxCell id="129" value="" style="shape=tableRow;horizontal=0;startSize=0;swimlaneHead=0;swimlaneBody=0;top=0;left=0;bottom=0;right=0;collapsible=0;dropTarget=0;fillColor=none;points=[[0,0.5],[1,0.5]];portConstraint=eastwest;fontSize=14;" vertex="1" parent="41">
                    <mxGeometry y="317" width="660" height="40" as="geometry"/>
                </mxCell>
                <mxCell id="130" value="'/cars'" style="shape=partialRectangle;html=1;whiteSpace=wrap;connectable=0;fillColor=none;top=0;left=0;bottom=0;right=0;overflow=hidden;fontSize=16;" vertex="1" parent="129">
                    <mxGeometry width="190" height="40" as="geometry">
                        <mxRectangle width="190" height="40" as="alternateBounds"/>
                    </mxGeometry>
                </mxCell>
                <mxCell id="131" value="" style="shape=partialRectangle;html=1;whiteSpace=wrap;connectable=0;fillColor=none;top=0;left=0;bottom=0;right=0;overflow=hidden;fontSize=16;" vertex="1" parent="129">
                    <mxGeometry x="190" width="200" height="40" as="geometry">
                        <mxRectangle width="200" height="40" as="alternateBounds"/>
                    </mxGeometry>
                </mxCell>
                <mxCell id="132" value="" style="shape=partialRectangle;html=1;whiteSpace=wrap;connectable=0;fillColor=none;top=0;left=0;bottom=0;right=0;overflow=hidden;fontSize=16;" vertex="1" parent="129">
                    <mxGeometry x="390" width="270" height="40" as="geometry">
                        <mxRectangle width="270" height="40" as="alternateBounds"/>
                    </mxGeometry>
                </mxCell>
                <mxCell id="125" value="" style="shape=tableRow;horizontal=0;startSize=0;swimlaneHead=0;swimlaneBody=0;top=0;left=0;bottom=0;right=0;collapsible=0;dropTarget=0;fillColor=none;points=[[0,0.5],[1,0.5]];portConstraint=eastwest;fontSize=14;" vertex="1" parent="41">
                    <mxGeometry y="357" width="660" height="40" as="geometry"/>
                </mxCell>
                <mxCell id="126" value="'/flights'" style="shape=partialRectangle;html=1;whiteSpace=wrap;connectable=0;fillColor=none;top=0;left=0;bottom=0;right=0;overflow=hidden;fontSize=16;" vertex="1" parent="125">
                    <mxGeometry width="190" height="40" as="geometry">
                        <mxRectangle width="190" height="40" as="alternateBounds"/>
                    </mxGeometry>
                </mxCell>
                <mxCell id="127" value="" style="shape=partialRectangle;html=1;whiteSpace=wrap;connectable=0;fillColor=none;top=0;left=0;bottom=0;right=0;overflow=hidden;fontSize=16;" vertex="1" parent="125">
                    <mxGeometry x="190" width="200" height="40" as="geometry">
                        <mxRectangle width="200" height="40" as="alternateBounds"/>
                    </mxGeometry>
                </mxCell>
                <mxCell id="128" value="" style="shape=partialRectangle;html=1;whiteSpace=wrap;connectable=0;fillColor=none;top=0;left=0;bottom=0;right=0;overflow=hidden;fontSize=16;" vertex="1" parent="125">
                    <mxGeometry x="390" width="270" height="40" as="geometry">
                        <mxRectangle width="270" height="40" as="alternateBounds"/>
                    </mxGeometry>
                </mxCell>
                <mxCell id="80" value="" style="shape=tableRow;horizontal=0;startSize=0;swimlaneHead=0;swimlaneBody=0;top=0;left=0;bottom=0;right=0;collapsible=0;dropTarget=0;fillColor=none;points=[[0,0.5],[1,0.5]];portConstraint=eastwest;" vertex="1" parent="41">
                    <mxGeometry y="397" width="660" height="56" as="geometry"/>
                </mxCell>
                <mxCell id="81" value="" style="shape=partialRectangle;html=1;whiteSpace=wrap;connectable=0;fillColor=none;top=0;left=0;bottom=0;right=0;overflow=hidden;fontSize=16;" vertex="1" parent="80">
                    <mxGeometry width="190" height="56" as="geometry">
                        <mxRectangle width="190" height="56" as="alternateBounds"/>
                    </mxGeometry>
                </mxCell>
                <mxCell id="82" value="" style="shape=partialRectangle;html=1;whiteSpace=wrap;connectable=0;fillColor=none;top=0;left=0;bottom=0;right=0;overflow=hidden;fontSize=16;" vertex="1" parent="80">
                    <mxGeometry x="190" width="200" height="56" as="geometry">
                        <mxRectangle width="200" height="56" as="alternateBounds"/>
                    </mxGeometry>
                </mxCell>
                <mxCell id="83" value="" style="shape=partialRectangle;html=1;whiteSpace=wrap;connectable=0;fillColor=none;top=0;left=0;bottom=0;right=0;overflow=hidden;fontSize=16;" vertex="1" parent="80">
                    <mxGeometry x="390" width="270" height="56" as="geometry">
                        <mxRectangle width="270" height="56" as="alternateBounds"/>
                    </mxGeometry>
                </mxCell>
                <mxCell id="50" value="" style="shape=tableRow;horizontal=0;startSize=0;swimlaneHead=0;swimlaneBody=0;top=0;left=0;bottom=0;right=0;collapsible=0;dropTarget=0;fillColor=none;points=[[0,0.5],[1,0.5]];portConstraint=eastwest;" vertex="1" parent="41">
                    <mxGeometry y="453" width="660" height="57" as="geometry"/>
                </mxCell>
                <mxCell id="51" value="" style="shape=partialRectangle;html=1;whiteSpace=wrap;connectable=0;fillColor=none;top=0;left=0;bottom=0;right=0;overflow=hidden;fontSize=16;" vertex="1" parent="50">
                    <mxGeometry width="190" height="57" as="geometry">
                        <mxRectangle width="190" height="57" as="alternateBounds"/>
                    </mxGeometry>
                </mxCell>
                <mxCell id="52" value="UserProfile, NavBar, UserImageCard,UserList" style="shape=partialRectangle;html=1;whiteSpace=wrap;connectable=0;fillColor=none;top=0;left=0;bottom=0;right=0;overflow=hidden;fontSize=16;" vertex="1" parent="50">
                    <mxGeometry x="190" width="200" height="57" as="geometry">
                        <mxRectangle width="200" height="57" as="alternateBounds"/>
                    </mxGeometry>
                </mxCell>
                <mxCell id="53" value="&lt;span style=&quot;font-size: 14px;&quot;&gt;A user's profile where they can edit their own profile, delete it and see other ...&lt;/span&gt;" style="shape=partialRectangle;html=1;whiteSpace=wrap;connectable=0;fillColor=none;top=0;left=0;bottom=0;right=0;overflow=hidden;fontSize=16;" vertex="1" parent="50">
                    <mxGeometry x="390" width="270" height="57" as="geometry">
                        <mxRectangle width="270" height="57" as="alternateBounds"/>
                    </mxGeometry>
                </mxCell>
                <mxCell id="95" value="Home" style="whiteSpace=wrap;html=1;" vertex="1" parent="1">
                    <mxGeometry x="80" y="770" width="120" height="60" as="geometry"/>
                </mxCell>
                <mxCell id="96" value="NavBar" style="whiteSpace=wrap;html=1;" vertex="1" parent="1">
                    <mxGeometry x="380" y="690" width="120" height="60" as="geometry"/>
                </mxCell>
                <mxCell id="97" value="Home(Page)" style="whiteSpace=wrap;html=1;" vertex="1" parent="1">
                    <mxGeometry x="80" y="690" width="120" height="60" as="geometry"/>
                </mxCell>
                <mxCell id="98" value="App" style="whiteSpace=wrap;html=1;" vertex="1" parent="1">
                    <mxGeometry x="80" y="590" width="120" height="60" as="geometry"/>
                </mxCell>
                <mxCell id="99" value="UserPage" style="whiteSpace=wrap;html=1;" vertex="1" parent="1">
                    <mxGeometry x="250" y="790" width="120" height="60" as="geometry"/>
                </mxCell>
                <mxCell id="100" value="UseCard" style="whiteSpace=wrap;html=1;" vertex="1" parent="1">
                    <mxGeometry x="250" y="950" width="120" height="60" as="geometry"/>
                </mxCell>
                <mxCell id="101" value="UserList" style="whiteSpace=wrap;html=1;" vertex="1" parent="1">
                    <mxGeometry x="250" y="870" width="120" height="60" as="geometry"/>
                </mxCell>
                <mxCell id="102" value="HousePage" style="whiteSpace=wrap;html=1;" vertex="1" parent="1">
                    <mxGeometry x="410" y="790" width="120" height="60" as="geometry"/>
                </mxCell>
                <mxCell id="103" value="HouseCard" style="whiteSpace=wrap;html=1;" vertex="1" parent="1">
                    <mxGeometry x="410" y="950" width="120" height="60" as="geometry"/>
                </mxCell>
                <mxCell id="104" value="HouseList" style="whiteSpace=wrap;html=1;" vertex="1" parent="1">
                    <mxGeometry x="410" y="870" width="120" height="60" as="geometry"/>
                </mxCell>
                <mxCell id="105" value="FlightPage" style="whiteSpace=wrap;html=1;" vertex="1" parent="1">
                    <mxGeometry x="700" y="790" width="120" height="60" as="geometry"/>
                </mxCell>
                <mxCell id="106" value="FlightCard" style="whiteSpace=wrap;html=1;" vertex="1" parent="1">
                    <mxGeometry x="700" y="950" width="120" height="60" as="geometry"/>
                </mxCell>
                <mxCell id="107" value="FlightList" style="whiteSpace=wrap;html=1;" vertex="1" parent="1">
                    <mxGeometry x="700" y="870" width="120" height="60" as="geometry"/>
                </mxCell>
                <mxCell id="108" value="CarPage" style="whiteSpace=wrap;html=1;" vertex="1" parent="1">
                    <mxGeometry x="560" y="790" width="120" height="60" as="geometry"/>
                </mxCell>
                <mxCell id="109" value="CarCard" style="whiteSpace=wrap;html=1;" vertex="1" parent="1">
                    <mxGeometry x="560" y="950" width="120" height="60" as="geometry"/>
                </mxCell>
                <mxCell id="110" value="CarList" style="whiteSpace=wrap;html=1;" vertex="1" parent="1">
                    <mxGeometry x="560" y="870" width="120" height="60" as="geometry"/>
                </mxCell>
                <mxCell id="111" value="Search" style="whiteSpace=wrap;html=1;" vertex="1" parent="1">
                    <mxGeometry x="220" y="690" width="120" height="60" as="geometry"/>
                </mxCell>
                <mxCell id="137" value="User CO2 &lt;br&gt;Summary" style="whiteSpace=wrap;html=1;" vertex="1" parent="1">
                    <mxGeometry x="80" y="870" width="120" height="60" as="geometry"/>
                </mxCell>
                <mxCell id="138" value="User CO2 Card&lt;br&gt;(Details)" style="whiteSpace=wrap;html=1;" vertex="1" parent="1">
                    <mxGeometry x="80" y="950" width="120" height="60" as="geometry"/>
                </mxCell>
                <mxCell id="139" value="User CO2 &lt;br&gt;Dashboard" style="whiteSpace=wrap;html=1;" vertex="1" parent="1">
                    <mxGeometry x="80" y="1030" width="120" height="60" as="geometry"/>
                </mxCell>
            </root>
        </mxGraphModel>
    </diagram>
</mxfile>